<svg width="640" height="480" viewBox="0 0 640 480" fill="none" xmlns="http://www.w3.org/2000/svg">
<rect width="640" height="480" rx="32" fill="#F4FBFB"/>
<circle cx="128" cy="104" r="54" fill="#D8F2F2"/>
<circle cx="524" cy="128" r="46" fill="#FFE3DB"/>
<path d="M90 390C122 320 168 285 240 266C307 248 371 256 443 215C491 188 530 151 560 100" stroke="#40A8AB" stroke-width="16" stroke-linecap="round"/>
<path d="M102 389H560" stroke="#CDE3E3" stroke-width="10" stroke-linecap="round"/>
<circle cx="332" cy="146" r="32" fill="#072B45"/>
<path d="M305 196L348 212L388 185" stroke="#072B45" stroke-width="18" stroke-linecap="round" stroke-linejoin="round"/>
<path d="M347 214L382 261L443 277" stroke="#40A8AB" stroke-width="18" stroke-linecap="round" stroke-linejoin="round"/>
<path d="M347 214L321 286L266 334" stroke="#072B45" stroke-width="18" stroke-linecap="round" stroke-linejoin="round"/>
<path d="M321 286L364 332" stroke="#40A8AB" stroke-width="18" stroke-linecap="round" stroke-linejoin="round"/>
<path d="M382 261L438 226" stroke="#FF6F61" stroke-width="18" stroke-linecap="round" stroke-linejoin="round"/>
<rect x="96" y="83" width="90" height="16" rx="8" fill="#FF6F61"/>
</svg>